<svg xmlns="http://www.w3.org/2000/svg" viewBox="0 0 51.5 49.5" width="52" height="50"><path d="M25.7 19.3c-1.1 1.1-2.8 1.6-4.9 1.9-1.9.3-3.6.1-4.7 1.2-1.1 1-2 3.7-1.7 5.6.3 1.6 1.7 3.4 3.4 3.5 3 .2 4.5-4.4 7.9-4.4 3.4 0 4.9 4.6 7.9 4.4 1.7-.1 3.1-1.9 3.4-3.5.3-1.9-.6-4.6-1.7-5.6-1.1-1.1-2.8-.9-4.7-1.2-2.1-.2-3.8-.8-4.9-1.9zM51.5 2.4c0 1.9-.5 21.5-1.9 28.4-1.2 6.3-6.1 10.8-10.8 13.8-3.3 2.1-8.5 4.8-13 4.8s-9.7-2.8-13-4.8c-4.7-3-9.6-7.5-10.8-13.8C.5 23.9 0 4.4 0 2.4.2 1.6.3.7.6 0h.2c2.3 7.7 2.9 17.1 9.4 20.6 1.2-3.4 4.1-4.9 7.4-6.4 2.1-.9 4.6-2.6 6.6-2.6.5 0 1 0 1.5.3.5-.3 1-.3 1.5-.3 2 .1 4.5 1.7 6.6 2.6 3.3 1.5 6.3 3 7.4 6.4 6.4-3.6 7-13 9.4-20.6h.2c.4.7.5 1.6.7 2.4z" fill="#826550"/></svg>