<svg xmlns="http://www.w3.org/2000/svg" viewBox="0 0 57.7 68.6" width="58" height="69"><path d="M49.8 12.4c.9-4 .8-8.6 2.2-12.4h.2c1.7 5.1.8 11.4.1 16.8-.3 1.9-.6 3.7-.7 5.4-.8 11.1 7 23.1 6 28.9-.9 7.5-8.4 9.4-14.2 12.4-4.3 2.2-8.3 5-13.3 5.2h-2.6c-5-.2-9-2.9-13.3-5.2C8.5 60.5 1 58.7.1 51.1c-.9-5.8 6.8-17.9 6-28.9-.1-1.7-.5-3.5-.7-5.4-.7-5.4-1.6-11.7.1-16.8h.2C7.1 3.7 7 8.4 7.9 12.4c.7 3 1.8 5.7 3.2 7.6.5.7 1.1 1.5 1.9 1.8.7-3.9 4.3-4.9 7.7-6.4 2.1-.9 4-2 6.1-2.2.8-.1 1.5.2 2 .2s1.2-.3 2-.2c2.2.1 4 1.3 6.1 2.2 3.4 1.4 7 2.4 7.7 6.4.9-.3 1.4-1.1 1.9-1.8 1.5-2 2.6-4.7 3.3-7.6zM36 25.4c-.7-2.1-4-1.6-7.1-1.6h-.2c-3 0-6.4-.5-7.1 1.6 2.1.4 4.6.5 7.2.5 2.6.1 5.1 0 7.2-.5z" fill="#826550"/></svg>