<svg xmlns="http://www.w3.org/2000/svg" xmlns:xlink="http://www.w3.org/1999/xlink" viewBox="0 0 58 57"><defs><path id="a" d="M0 0h58v57H0z"/></defs><clipPath id="b"><use xlink:href="#a" overflow="visible"/></clipPath><g clip-path="url(#b)"><defs><path id="c" d="M0 0h58v57H0z"/></defs><clipPath id="d"><use xlink:href="#c" overflow="visible"/></clipPath><path d="M29.4 8.6V.3c0-.2-.2-.4-.4-.4s-.4.2-.4.4v8.3h.8m-10.6 2.9c.2-.1.5-.3.7-.4l-4.2-7.2c-.1-.2-.4-.3-.6-.1-.2.1-.3.4-.1.6l4.2 7.1zM4.4 14.1c-.1.2 0 .4.1.6l7.2 4.2c.1-.2.3-.5.4-.7L4.9 14c-.2-.2-.4-.1-.5.1M43.5 3.4c-.2-.1-.4 0-.6.1l-4.4 7.6c.2.1.5.3.7.4L43.7 4c.1-.2 0-.5-.2-.6m10.4 11.1c.2-.1.3-.4.1-.6-.1-.2-.4-.3-.6-.1l-7.6 4.4c.1.2.3.5.4.7l7.7-4.4zm-44.6 14v-.4H.5c-.2 0-.4.2-.4.4s.2.4.4.4h8.8v-.4m48.3-.4h-8.9v.8h8.8c.2 0 .4-.2.4-.4s-.2-.4-.3-.4m-4.1 14l-7.2-4.2c-.1.2-.3.5-.4.7l7.2 4.2c.1 0 .1.1.2.1s.3-.1.4-.2c.1-.3 0-.5-.2-.6m-49.4.1c-.2.1-.3.4-.1.6 0 .1.2.2.3.2.1 0 .1 0 .2-.1l7.6-4.4c-.1-.2-.3-.5-.4-.7l-7.6 4.4zm35.1 3c-.2.1-.5.3-.7.4l4.2 7.2c.1.1.2.2.4.2.1 0 .1 0 .2-.1.2-.1.3-.4.1-.6l-4.2-7.1zm-24.9 7.5c-.1.2 0 .4.1.6.1 0 .1.1.2.1s.3-.1.4-.2l4.4-7.6c-.2-.1-.5-.3-.7-.4l-4.4 7.5zM28.6 48v8.3c0 .2.2.4.4.4s.4-.2.4-.4V48h-.8m14.2-26.9c.3-.2.4-.5.2-.8-.2-.3-.5-.4-.8-.2l-11.6 6.7c-.4-.4-1-.7-1.6-.7-.6 0-1.2.3-1.6.7L19.1 22c-.3-.2-.7-.1-.8.2-.2.3-.1.7.2.8l8.3 4.8c0 .2-.1.4-.1.6 0 1.3 1 2.3 2.3 2.3 1.3 0 2.3-1 2.3-2.3 0-.2 0-.4-.1-.6l11.6-6.7zM29 29.4c-.6 0-1.1-.5-1.1-1.1 0-.6.5-1.1 1.1-1.1.6 0 1.1.5 1.1 1.1 0 .6-.5 1.1-1.1 1.1" clip-path="url(#d)" fill="#fff"/></g></svg>